HIERARCHY
ROOT simHips
{
  OFFSET 86.679 99.8409 17.6524
  CHANNELS 6 Xposition Yposition Zposition Zrotation Xrotation Yrotation
  JOINT simSpine
  {
    OFFSET -0.000355721 21.3001 -0.016921
    CHANNELS 3 Zrotation Xrotation Yrotation
    JOINT simLeftArm
    {
      OFFSET 13.5181 21.3012 0
      CHANNELS 3 Zrotation Xrotation Yrotation
      JOINT simLeftForeArm
      {
        OFFSET 24.5783 0 0
        CHANNELS 3 Zrotation Xrotation Yrotation
        JOINT simLeftHand
        {
          OFFSET 24.5783 0 0
          CHANNELS 3 Zrotation Xrotation Yrotation
          End Site
          {
            OFFSET 7.32568 1.52588e-05 0.0169305
          }
        }
      }
    }
    JOINT simHead
    {
      OFFSET 0 27.4458 -0.00489235
      CHANNELS 3 Zrotation Xrotation Yrotation
      End Site
      {
        OFFSET 0 0 0
      }
    }
    JOINT simRightArm
    {
      OFFSET -13.5174 21.3012 0
      CHANNELS 3 Zrotation Xrotation Yrotation
      JOINT simRightForeArm
      {
        OFFSET -24.5783 0 0
        CHANNELS 3 Zrotation Xrotation Yrotation
        JOINT simRightHand
        {
          OFFSET -24.5783 0 0
          CHANNELS 3 Zrotation Xrotation Yrotation
          End Site
          {
            OFFSET -7.32568 1.52588e-05 0.0169305
          }
        }
      }
    }
  }
  JOINT simRightUpLeg
  {
    OFFSET -8.44614 -9.41038 0.835684
    CHANNELS 3 Zrotation Xrotation Yrotation
    JOINT simRightLeg
    {
      OFFSET 0 -40.9639 0
      CHANNELS 3 Zrotation Xrotation Yrotation
      JOINT simRightFoot
      {
        OFFSET 0 -40.9639 0
        CHANNELS 3 Zrotation Xrotation Yrotation
        End Site
        {
          OFFSET 0.50614 -9.67405 14.6709
        }
      }
    }
  }
  JOINT simLeftUpLeg
  {
    OFFSET 8.44614 -9.41038 0.835684
    CHANNELS 3 Zrotation Xrotation Yrotation
    JOINT simLeftLeg
    {
      OFFSET 0 -40.9639 0
      CHANNELS 3 Zrotation Xrotation Yrotation
      JOINT simLeftFoot
      {
        OFFSET 0 -40.9639 0
        CHANNELS 3 Zrotation Xrotation Yrotation
        End Site
        {
          OFFSET -0.50614 -9.67405 14.6709
        }
      }
    }
  }
}
MOTION
Frames:	13
Frame Time:	0.0333333
87.7183 99.8738 17.8471 -0.155204 0.302629 -1.56649 0.446864 0.0863918 0.646696 4.5987 1.38514 -0.775185 -0.583432 -0.0979883 8.75534e-05 -0.496543 2.39899 0.703796 -0.0604315 -4.03448 -0.333818 -2.57998 1.34975 1.11046 0.603154 0.0765816 1.83961e-05 1.49119 0.831462 -0.785119 0.509601 -0.300235 0.800968 -0.105728 -0.0277834 0.00448344 -0.0372504 0.0153272 0.704579 -1.88879 -1.30199 0.910314 0.0330011 1.58264 0.0307335 2.06674 -0.47105 0.642933 
87.6501 99.8738 17.877 -0.145034 0.299453 -1.46202 0.48831 0.0725649 0.704127 4.30689 1.14955 -0.757859 -0.686743 -0.0979883 8.75534e-05 -0.481097 2.34461 0.75388 -0.0677471 -3.94529 -0.661967 -2.73747 1.12114 1.06551 0.673414 0.0765816 1.83961e-05 1.59084 0.852596 -0.76433 0.548773 -0.275302 0.855471 -0.108882 0.00460413 0.00448344 -0.0369539 -0.0359125 0.557149 -1.85124 -1.30778 0.839848 0.0343458 1.63564 0.0307343 2.0195 -0.49887 0.60688 
87.587 99.8735 17.9009 -0.123448 0.244585 -1.37171 0.504317 0.0918417 0.73858 3.99743 1.08683 -0.666433 -0.732258 -0.0979883 8.75534e-05 -0.722928 2.29547 0.702622 -0.036507 -3.83141 -0.899572 -2.80086 0.916153 1.07535 0.734029 0.0765816 1.83961e-05 1.59104 0.920598 -0.780753 0.570091 -0.20927 0.772448 -0.123322 0.0233455 0.00448344 -0.130171 -0.0758879 0.564026 -1.8227 -1.22548 0.835827 0.0197661 1.59284 0.0307336 1.95148 -0.49102 0.504616 
87.5144 99.8733 17.92 -0.0975842 0.202678 -1.24032 0.488158 0.0962471 0.766891 3.7347 1.39943 -0.614588 -0.774964 -0.102991 8.75534e-05 -0.889083 2.22957 0.651006 0.0212433 -3.75734 -1.099 -2.75441 0.773043 0.980461 0.742891 0.0765782 1.83961e-05 1.59039 0.773467 -0.836212 0.579315 -0.17907 0.796979 -0.10998 0.0272297 0.00448344 -0.178407 -0.0751653 0.42528 -1.80804 -1.19802 0.678122 -0.000647334 1.64955 0.0307345 1.97316 -0.502728 0.55556 
87.4521 99.8729 17.9317 -0.0934291 0.158938 -1.12934 0.519247 0.109671 0.81316 3.4238 1.18107 -0.692495 -0.832705 0.0842518 8.75534e-05 -0.895947 2.42416 0.613771 0.0512468 -3.61775 -1.16602 -2.7461 0.65957 0.918578 0.78429 0.0765561 1.83961e-05 1.68501 0.897591 -0.791641 0.618094 -0.108866 0.626236 -0.114355 0.0491062 0.00448344 -0.217411 -0.124662 0.497377 -1.78938 -1.12555 0.641929 0.0318422 1.60773 0.0314102 1.92839 -0.494992 0.489283 
87.3864 99.8729 17.9462 -0.0589681 0.138161 -0.977893 0.494961 0.0789942 0.81884 3.2149 1.20615 -0.719251 -0.835614 0.162151 8.75536e-05 -1.01945 2.2032 0.531524 0.122903 -3.44046 -1.22295 -2.68751 0.527831 0.856013 0.801619 0.0765188 1.83961e-05 1.73355 1.10934 -0.77229 0.622691 0.030296 0.719478 -0.122592 -0.0634852 0.00448344 -0.258299 -0.139102 0.269241 -1.76027 -1.10641 0.516659 -0.00312483 1.61261 0.0437146 1.86948 -0.477213 0.455341 
87.3245 99.8727 17.9588 -0.028805 0.119084 -0.833416 0.47517 0.0538967 0.813319 3.08314 1.1838 -0.80599 -0.84874 0.507972 8.75567e-05 -1.08295 1.8712 0.534714 0.142677 -3.26505 -1.26197 -2.67258 0.546728 0.765432 0.808385 0.0764699 1.83961e-05 1.71386 1.0678 -0.820006 0.63871 -0.00586996 0.67811 -0.140957 0.0688628 0.00448344 -0.340351 -0.258061 0.185652 -1.76275 -1.09357 0.269926 0.017462 1.62222 0.0553142 1.74275 -0.491885 0.531419 
87.2687 99.8728 17.9608 -0.0159505 0.123536 -0.695383 0.475512 0.00901273 0.770903 2.99047 1.23588 -0.796791 -0.841355 0.313118 8.75546e-05 -1.06236 2.15438 0.563555 0.106981 -3.10143 -1.31933 -2.69513 0.567622 0.707219 0.813166 0.0764127 1.83961e-05 1.77178 1.088 -0.718441 0.666671 -0.0243844 0.597443 -0.133301 0.106667 0.00448344 -0.326794 -0.268431 0.122363 -1.73611 -1.08459 0.362988 0.023429 1.5789 0.0438869 1.74599 -0.462418 0.327389 
87.2238 99.873 17.9618 -0.011767 0.146231 -0.610083 0.461635 -0.0387269 0.706582 2.9747 1.26526 -0.736731 -0.845568 0.414388 8.75556e-05 -1.17909 1.92918 0.48457 0.0495458 -3.00722 -1.33989 -2.71887 0.431014 0.693841 0.81402 0.0763508 1.83961e-05 1.82923 1.15643 -0.717893 0.683619 0.0315704 0.540596 -0.125344 -0.0148275 0.00448344 -0.354315 -0.223964 0.0970672 -1.71225 -1.10272 0.396408 0.0135246 1.56903 0.0360192 1.68899 -0.4869 0.223792 
87.1917 99.8728 17.9548 -0.014554 0.124245 -0.591818 0.473431 -0.0335253 0.680681 2.98071 1.35041 -0.656268 -0.852024 0.598469 8.75581e-05 -1.21772 1.72231 0.495311 -0.0470257 -2.94128 -1.32301 -2.83207 0.504872 0.686329 0.813167 0.0762878 1.83961e-05 1.81245 1.06908 -0.750142 0.709997 -0.0172995 0.504616 -0.12187 0.0874105 0.00448344 -0.373181 -0.257715 0.102793 -1.70151 -1.1109 0.311418 0.0255776 1.62591 0.0370979 1.64253 -0.528891 0.296292 
87.1591 99.8728 17.9477 -0.0255511 0.110777 -0.560972 0.490907 -0.0147735 0.647083 2.98214 1.26628 -0.596771 -0.85361 0.645338 8.75588e-05 -1.31968 1.65343 0.465854 -0.0884377 -2.91247 -1.20309 -2.93306 0.468561 0.638563 0.811502 0.0762271 1.83961e-05 1.82571 1.10584 -0.715564 0.750349 0.0627247 0.38266 -0.136928 0.00400666 0.00448344 -0.357017 -0.248192 0.179498 -1.63894 -1.07321 0.250305 -0.0138613 1.5656 0.0417381 1.63545 -0.487964 0.330271 
87.1583 99.8731 17.9451 -0.0219774 0.157781 -0.63929 0.525047 -0.083304 0.702315 2.9463 1.22631 -0.524719 -0.853558 0.590716 8.75579e-05 -1.49755 1.67187 0.500071 -0.112624 -2.76689 -1.03718 -3.02912 0.359317 0.612814 0.809924 0.0761722 1.83961e-05 1.90591 0.979499 -0.704101 0.745086 -0.0430938 0.368697 -0.138404 0.0306424 0.00448344 -0.36446 -0.199076 0.283572 -1.64962 -1.11968 0.32425 -0.00388099 1.57127 0.0444897 1.65196 -0.494391 0.330276 
87.1704 99.8741 17.9473 -0.0122857 0.173551 -0.736481 0.564186 -0.0985503 0.720006 2.88222 1.15888 -0.414978 -0.852613 0.643769 8.75588e-05 -1.50594 1.58076 0.473451 -0.154762 -2.63512 -0.852933 -3.13651 0.382018 0.648258 0.80933 0.0761268 1.83961e-05 1.88359 0.888408 -0.706201 0.73079 -0.0446383 0.514375 -0.143716 -0.000921021 0.00448344 -0.329229 -0.215525 0.225242 -1.68036 -1.17181 0.269375 0.0314615 1.64513 0.0416453 1.6294 -0.527685 0.466761 
